
        <svg xmlns="http://www.w3.org/2000/svg" xmlns:xlink="http://www.w3.org/1999/xlink" version="1.1" width="3187.5" height="868.4727141512886" viewBox="0 0 3187.5 868.4727141512886">
			
			<g transform="scale(9.375) translate(10, 10)">
				<defs id="SvgjsDefs1279"/><g id="SvgjsG1280" featureKey="S6ay6y-0" transform="matrix(1.1404120107296454,0,0,1.1404120107296454,-7.020599992691451,-20.742016063145858)" fill="#000"><g xmlns="http://www.w3.org/2000/svg" transform="translate(0,-952.36218)"><path style="text-indent:0;text-transform:none;direction:ltr;block-progression:tb;baseline-shift:baseline;color:;enable-background:accumulate;" d="m 53.593797,977.56534 -13,47.99996 5.8124,1.5937 13,-47.99991 -5.8124,-1.59375 z m -20.4688,3.4375 -23.9999995,18.99996 -2.9688,2.375 2.9688,2.3438 23.9999995,19 3.75,-4.7188 -21.031199,-16.625 21.031199,-16.65622 -3.75,-4.71875 z m 33.750001,0 -3.750001,4.71875 21.031206,16.65621 -21.031206,16.625 3.750001,4.7188 24.000004,-19 2.968801,-2.3438 -2.968801,-2.375 -24.000004,-18.99996 z" fill-opacity="1" stroke="none" marker="none" visibility="visible" display="inline" overflow="visible"/></g></g><g id="SvgjsG1281" featureKey="j5pGhi-0" transform="matrix(3.8699775871277895,0,0,3.8699775871277895,118.1486055213436,-17.76319771542827)" fill="#000"><path d="M7.6758 4.901999999999999 l6.748 14.482 l-1.543 0 l-2.2754 -4.7754 l-6.25 0 l-2.2559 4.7754 l-1.6211 0 l6.8457 -14.482 l0.35156 0 z M7.5 7.968999999999999 l-2.5 5.2539 l4.9609 0 z M16.230509375 4.59 l1.3867 0 l0 14.854 l-1.3867 0 l0 -14.854 z M21.328146875 10.332 q-0.87890625 1.46484375 -1.0546875 2.880859375 q0 10.16601563 0 10.14648438 l1.3672 0 l0 -5.9766 q0.869140625 1.064453125 1.943359375 1.586914063 t2.3535 0.52246 q2.265625 0 3.876953125 -1.650390625 t1.6113 -4.0039 q0 -2.314453125 -1.62109375 -3.955078125 t-3.9063 -1.6406 q-1.30859375 0 -2.456054688 0.5029296875 t-2.1143 1.5869 z M25.781246875 9.561 q1.162109375 0 2.133789063 0.5712890625 t1.5479 1.5869 t0.57617 2.168 q0 1.1328125 -0.5810546875 2.172851563 t-1.5625 1.6113 t-2.0947 0.57129 q-1.1328125 0 -2.1484375 -0.5712890625 t-1.5625 -1.5527 t-0.54688 -2.1924 q0 -1.865234375 1.23046875 -3.115234375 t3.0078 -1.25 z M43.20325 15.6348 l1.1523 0.61523 q-0.556640625 1.123046875 -1.30859375 1.806640625 t-1.6895 1.04 t-2.1191 0.35645 q-2.6171875 0 -4.091796875 -1.713867188 t-1.4746 -3.8721 q0 -2.041015625 1.25 -3.6328125 q1.58203125 -2.03125 4.248046875 -2.03125 q2.724609375 0 4.365234375 2.080078125 q1.162109375 1.46484375 1.171875 3.65234375 l-9.6191 0 q0.0390625 1.875 1.19140625 3.071289063 t2.8418 1.1963 q0.8203125 0 1.591796875 -0.2880859375 t1.3135 -0.75684 t1.1768 -1.5234 z M43.20325 12.7539 q-0.2734375 -1.103515625 -0.80078125 -1.762695313 t-1.3965 -1.0645 t-1.8262 -0.40527 q-1.572265625 0 -2.705078125 1.015625 q-0.8203125 0.7421875 -1.240234375 2.216796875 l7.9688 0 z M46.7480875 14.541 l0 -1.2891 q0.15625 -0.966796875 0.44921875 -1.572265625 q0.68359375 -1.6796875 1.8359375 -2.4609375 t1.9141 -0.78125 q0.56640625 0 1.2109375 0.37109375 l-0.71289 1.1523 q-0.908203125 -0.33203125 -1.801757813 0.537109375 t-1.2354 1.8945 q-0.25390625 0.908203125 -0.25390625 3.408203125 l0 3.623 l-1.4063 0 l0 -4.8828 z"/></g>
			</g>
		</svg>
	